<svg xmlns="http://www.w3.org/2000/svg" xmlns:xlink="http://www.w3.org/1999/xlink" version="1.1" x="0px" y="0px" viewBox="-20 -20 140 140" xml:space="preserve" data-icon="true" fill="#000000"><g><g><ellipse cx="38.941" cy="11.46" rx="6.398" ry="6.448"></ellipse><path d="M46.1,42.836l3.572-22.685l-22.774,0.025l-4.395,32.062l4.039,3.537l2.329-19.237h1.382l-3.147,58.434h5.613l6.024-36.975    L44.587,95h5.842l-2.364-46.794C46.614,46.835,45.871,44.848,46.1,42.836z"></path><polygon points="52.284,49.873 50.429,71.96 54.26,71.964 56.723,94.891 60.671,95 60.744,71.964 62.423,71.964 62.373,94.891     65.994,94.891 68.772,71.964 72.823,71.943 69.923,46.238"></polygon><path d="M62.996,8.632c-0.548-0.235-1.14-0.391-1.763-0.453c-3.306-0.328-6.252,2.104-6.583,5.434    c-0.331,3.33,2.08,6.298,5.386,6.626c2.098,0.208,4.049-0.7,5.28-2.242c1.671,1.404,3.792,5.989,7.142-0.2    C68.177,21.228,68.327,10.487,62.996,8.632z"></path><path d="M73.941,38.935l-2.547-16.206H50.487l-3.192,20.269c-0.198,1.752,0.541,3.494,1.928,4.606    c0.919,0.624,2.024,0.998,3.23,0.998l11.709-2.398l-2.327-5.857c-1.966,0.752-5.014,1.906-6.805,2.526    c-1.132,0.391-2.039-1.218-1.899-2.407l0.594-4.939l-2.505,0.953l-1.038-0.933l4.16-2.127c0.539-0.261,1.349-0.088,1.448,0.502    c0.205,1.209,0.009,3.803,0.009,3.803l4.722-1.83c0.837-0.325,1.779,0.091,2.104,0.929l0.612,1.578l0.474,1.223l0.498,1.285v5.283    l3.978-0.815C70.929,44.92,74.331,42.37,73.941,38.935z M67.492,38.912c-1.495,0.579-3.177-0.163-3.756-1.658    c-0.579-1.495,0.163-3.177,1.658-3.756c1.495-0.579,3.177,0.163,3.756,1.658C69.729,36.651,68.987,38.332,67.492,38.912z"></path></g></g></svg>