<svg xmlns="http://www.w3.org/2000/svg" xmlns:xlink="http://www.w3.org/1999/xlink" version="1.1" x="0px" y="0px" viewBox="-20 -20 140 140" xml:space="preserve" data-icon="true" fill="#000000"><g><ellipse cx="76.979" cy="49.499" rx="4.098" ry="4.13"></ellipse><ellipse cx="18.702" cy="49.499" rx="4.098" ry="4.13"></ellipse><ellipse cx="38.287" cy="18.191" rx="5.882" ry="5.928"></ellipse><path d="M46.675,51.974c-1.334-1.26-2.016-3.087-1.806-4.937l3.284-20.856l-20.938,0.023l-3.908,28.514l-4.604,0.006l-5.837-0.008   L5,72.301l2.681-0.109l4.786-9.585l0.902,0.021l-1.806,20.094l2.481,0.002l1.595,12.415l2.557,0.059l0.047-12.474h0.309h0.301   h0.309l0.047,12.474l2.557-0.059l1.595-12.415l2.481-0.002l-1.806-20.094l0.902-0.021l3.802,7.614l-1.333,24.748h5.16l5.538-33.993   l5.373,34.019h5.371L46.675,51.974z M26.779,59.722l2.25-18.476H30.3l-1.267,23.516L26.779,59.722z"></path><polygon points="94.931,72.604 81.391,54.806 71.951,54.793 67.915,60.307 66.771,50.165 50.554,53.507 48.848,73.813    52.371,73.816 54.635,94.894 58.264,94.994 58.332,73.816 59.876,73.816 59.829,94.894 63.159,94.894 65.712,73.816 69.436,73.797    68.554,65.973 71.029,63.698 69.304,95.077 73.01,95.077 77.027,75.212 82.295,95.199 85.41,95.199 83.07,63.469 92.961,74.257"></polygon><path d="M60.402,15.591c-0.504-0.216-1.048-0.359-1.621-0.416c-3.039-0.302-5.748,1.934-6.052,4.996   c-0.304,3.062,1.912,5.79,4.951,6.091c1.929,0.192,3.722-0.644,4.854-2.061c1.536,1.291,3.486,5.506,6.566-0.184   C65.166,27.171,65.304,17.297,60.402,15.591z"></path><path d="M70.465,43.451l-2.342-14.899H48.902l-2.935,18.634c-0.182,1.611,0.497,3.213,1.773,4.234   c0.845,0.574,1.861,0.917,2.969,0.917l10.765-2.204l-2.139-5.384c-1.808,0.692-4.609,1.753-6.256,2.322   c-1.04,0.36-1.875-1.12-1.746-2.213l0.546-4.541l-2.303,0.876l-0.954-0.858l3.824-1.955c0.495-0.24,1.24-0.081,1.332,0.462   c0.188,1.112,0.008,3.497,0.008,3.497l4.341-1.683c0.77-0.298,1.636,0.084,1.934,0.854l0.562,1.451l0.436,1.125l0.458,1.182v4.857   l3.657-0.749C67.695,48.953,70.823,46.609,70.465,43.451z M64.535,43.429c-1.374,0.533-2.92-0.15-3.453-1.524   c-0.533-1.374,0.15-2.92,1.524-3.453c1.374-0.533,2.92,0.15,3.453,1.524C66.592,41.351,65.91,42.897,64.535,43.429z"></path></g></svg>