<svg xmlns="http://www.w3.org/2000/svg" xmlns:xlink="http://www.w3.org/1999/xlink" version="1.1" x="0px" y="0px" viewBox="-20 -20 489 277" style="enable-background:new 0 0 449.203 237.525;" xml:space="preserve" data-icon="true" fill="#000000"><g><g><path d="M247.138,227.525c0,5.523,4.477,10,10,10c5.521,0,10-4.477,10-10v-48.961c-7.705-0.097-14.383-0.855-20-1.898V227.525z"></path><path d="M270.472,227.525c0,5.523,4.476,10,10,10c5.52,0,10-4.477,10-10v-50.859c-5.617,1.042-12.295,1.801-20,1.898V227.525z"></path><path d="M202.496,224.82V74.865c0.592,1.215,1.189,2.608,1.777,4.233c2.82,7.813,5.19,20.629,5.182,40.639    c0,5.514-0.177,11.571-0.563,18.222c-0.257,4.413,3.11,8.195,7.521,8.452c0.158,0.009,0.315,0.014,0.473,0.014    c4.207,0,7.733-3.283,7.981-7.535c0.247-4.304,0.405-8.364,0.496-12.244c4.456-24.182,11.417-37.674,17.303-45.074l-17.194,84.509    c0,0,0.219,0.13,0.64,0.354c3.123,1.661,17.738,8.646,42.693,8.646c17.96,0,30.561-3.618,37.382-6.267    c1.03,0.596,2.221,0.941,3.491,0.942c0.057,0,0.113-0.001,0.17-0.002c0.787-0.018,1.538-0.172,2.239-0.429    c2.738-1.003,4.665-3.659,4.592-6.736c0-0.02,0-0.045,0-0.077c-0.02-19.599,2.488-33.715,5.942-42.177    c0.577-1.435,1.179-2.687,1.784-3.789v24.226v12.166h45.617v-12.166v-24.224c1.49,2.732,2.975,6.45,4.169,11.188    c2.177,8.463,3.559,20.067,3.554,34.771c0,0.026-0.002,0.165,0.003,0.411c0.08,3.521,2.753,6.371,6.151,6.781    c-0.153,2.773-0.244,5.705-0.245,8.855c0,1.382,0.014,2.813,0.049,4.293c0.074,2.99,2.521,5.365,5.498,5.365    c0.045,0,0.092-0.001,0.137-0.002c3.037-0.074,5.439-2.6,5.365-5.635c-0.035-1.375-0.051-2.714-0.051-4.021    c-0.004-15.102,2.02-24.738,4.277-30.744v25.964h35.002v-25.965c2.254,6.002,4.275,15.653,4.272,30.745    c0,1.303-0.015,2.648-0.045,4.037c-0.068,3.036,2.342,5.552,5.377,5.619c0.041,0,0.082,0,0.123,0    c2.984,0.001,5.432-2.383,5.498-5.379c0.032-1.465,0.047-2.89,0.047-4.277c-0.006-21.034-3.637-33.363-7.82-40.773    c-4.151-7.421-9.035-9.631-10.17-9.962c-0.242-0.079-0.488-0.135-0.731-0.181c-0.491-0.16-1.007-0.269-1.55-0.269h-6.027h-12.947    h-6.027c-0.547,0-1.063,0.109-1.555,0.272c-0.244,0.044-0.486,0.1-0.727,0.18h-0.001c-1.136,0.327-6.017,2.538-10.171,9.958    c-0.325,0.577-0.647,1.194-0.964,1.832c-1.153-9.832-3.092-17.964-5.731-24.529c-2.256-5.547-5.024-10.05-8.624-13.426    c-3.157-2.99-7.211-4.999-11.485-5.392c-0.214-0.022-0.43-0.036-0.649-0.036h-0.101c-0.291-0.014-0.581-0.044-0.874-0.042    c-0.256,0-0.509,0.016-0.758,0.042h-30.166c-0.244-0.026-0.492-0.04-0.744-0.04v-0.003c-0.296-0.002-0.588,0.029-0.883,0.043    h-0.092c-0.218,0-0.434,0.013-0.645,0.036c-4.276,0.392-8.334,2.401-11.489,5.393c-5.378,5.087-8.991,12.596-11.596,22.6    c-0.584,2.281-1.105,4.705-1.568,7.261l-2.317-11.391c-1.696,2.658-3.605,5.371-5.736,8.146l0.016,0.014    c1.732,1.517,2.279,3.964,1.354,6.075l-5.292,12.071c-0.866,1.975-2.796,3.15-4.821,3.15c-0.705,0-1.421-0.143-2.109-0.444    c-2.662-1.167-3.874-4.268-2.707-6.93l2.501-5.705c-1.875-0.079-3.684-0.771-5.124-1.986c-3.581-3.025-4.035-8.4-1.014-11.981    c1.343-1.588,2.573-3.117,3.709-4.593h-14.906v-8.897l-10.131,9.318c-0.723,0.664-1.634,0.992-2.545,0.992    c-1.014,0-2.024-0.408-2.764-1.213c-1.406-1.529-1.307-3.904,0.221-5.311l15.613-14.359c0.191-0.176,0.396-0.328,0.609-0.457    c0.597-0.579,1.407-0.939,2.305-0.939h14.996c0.895,0,1.702,0.359,2.297,0.936c0.217,0.13,0.424,0.282,0.617,0.46l3.529,3.247    c1.916-4.62,2.492-8.198,2.475-10.842c-0.011-2.861-0.618-5.257-1.916-7.545c-0.527-0.926-1.174-1.818-1.934-2.671l1.449-1.368    c0.834,0.932,1.593,1.946,2.225,3.053c1.305,2.305,2.164,4.969,2.177,8.52c0.02,3.195-0.777,7.278-2.936,12.271l10.024,9.222    c4.092-7.958,5.888-15.053,5.913-21.492c0.01-5.986-1.648-11.218-4.124-15.37c-1.153-1.934-2.464-3.614-3.838-5.117    c-3.07-3.361-6.49-5.739-9.417-7.392c-4.265-2.385-7.598-3.327-7.938-3.428c-0.017-0.005-0.033-0.007-0.05-0.011    c-0.01-0.002-0.02-0.007-0.03-0.01c-0.292-0.057-8.093-2.19-16.683-2.219c-7.472,0.025-14.343,1.641-16.201,2.1    c-2.17,0.349-10.283,2.49-18.716,12.362c-3.619,4.218-7.29,9.778-10.693,17.116c-2.036-11.94-5.301-20.177-9.175-26.096    c-3.285-4.987-7.128-8.184-10.679-9.957c-3.412-1.719-6.41-2.11-8.212-2.132c-0.121-0.006-0.24-0.019-0.362-0.019h-38.635    c-0.111,0-0.219,0.012-0.329,0.017c-1.8,0.019-4.817,0.402-8.252,2.135c-5.38,2.667-11.179,8.502-15.236,18.838    c-3.909,9.886-6.592,23.986-6.851,44.881c-0.298-0.384-0.595-0.761-0.893-1.122c-6.691-8.153-13.268-10.019-14.391-10.233    c-0.423-0.092-0.845-0.138-1.262-0.146c-2.856-0.731-6.968-1.322-12.811-1.322c-5.847,0-9.96,0.592-12.816,1.324    c-0.416,0.008-0.836,0.054-1.258,0.146c-1.122,0.213-7.698,2.081-14.39,10.232c-6.711,8.138-13.433,22.197-16.187,46.372    c-0.032,0.281-0.039,0.559-0.036,0.834c-2.663-4.064-6.204-6.387-9.692-6.906c-3.613,2.503-7.993,3.975-12.712,3.975    c-4.72,0-9.1-1.472-12.713-3.976c-4.135,0.614-8.347,3.754-11.083,9.334C2.041,171.425,0.018,181.017,0,196.145    c0,2.565,2.077,4.646,4.643,4.646c2.564,0,4.644-2.081,4.644-4.646c-0.015-12.777,1.637-20.795,3.545-25.383v59.107    c0,4.086,3.315,7.398,7.399,7.398c4.087,0,7.399-3.313,7.399-7.398v-28.524h2.774v28.524c0,4.086,3.312,7.398,7.398,7.398    c4.085,0,7.398-3.313,7.398-7.398v-59.104c1.909,4.589,3.56,12.606,3.544,25.379c0,2.565,2.078,4.646,4.645,4.646    c2.565,0,4.645-2.081,4.645-4.646c-0.017-13.161-1.553-22.128-4.046-28.415c0.899,0.685,1.985,1.149,3.19,1.287    c0.25,0.028,0.498,0.043,0.744,0.043c3.261,0,6.073-2.447,6.453-5.765c1.835-16.066,5.446-26.49,9.077-33.209    c-2.927,18.035-6.438,42.933-6.438,58.604c0,0.078,0.018,0.154,0.027,0.23c0.566,4.964,19.209,8.719,29.066,8.719    c9.858,0,28.5-3.755,29.066-8.719c0.009-0.077,0.027-0.153,0.027-0.23c0-15.664-3.51-40.549-6.437-58.582    c3.628,6.718,7.24,17.133,9.073,33.187c0.378,3.316,3.19,5.765,6.452,5.765c0.246,0,0.493-0.014,0.743-0.042    c3.566-0.406,6.129-3.628,5.723-7.195c-0.696-6.107-1.646-11.566-2.783-16.45c2.559-1.46,4.22-4.276,4.034-7.418    c-0.393-6.65-0.57-12.708-0.57-18.221c-0.035-24.217,3.497-37.821,6.966-44.92V224.82c0,6.83,5.537,12.363,12.363,12.363    c6.828,0,12.365-5.533,12.365-12.363v-90.271h4.635v90.271c0,6.83,5.537,12.363,12.363,12.363    C196.959,237.184,202.496,231.65,202.496,224.82z M261.864,128.292l5.793-5.062l8.145,6.852l-4.11,3.592l3.743,8.539    c1.166,2.661-0.046,5.765-2.707,6.93c-0.686,0.302-1.404,0.444-2.107,0.444c-2.024-0.001-3.956-1.177-4.82-3.149l-5.293-12.073    C259.58,132.256,260.127,129.807,261.864,128.292z M279.464,94.656c-6.21,0-11.244-5.034-11.244-11.245    c0-6.21,5.034-11.246,11.244-11.246c6.211,0,11.248,5.036,11.248,11.246C290.712,89.622,285.675,94.656,279.464,94.656z"></path><circle cx="175.45" cy="22.5" r="22.5"></circle><ellipse transform="matrix(0.2268 -0.9739 0.9739 0.2268 177.3278 286.0284)" cx="268.805" cy="31.333" rx="21.496" ry="21.495"></ellipse><path d="M300.399,118.369l-9.027-8.306c-2.445,4.111-5.693,8.688-9.987,13.768c-2.316,2.743-1.968,6.843,0.775,9.161    c1.22,1.029,2.708,1.531,4.189,1.531c1.85,0,3.686-0.783,4.973-2.307c3.947-4.684,7.199-9.105,9.867-13.307    C300.911,118.763,300.642,118.592,300.399,118.369z"></path><path d="M77.027,228.795c0,4.491,3.641,8.134,8.133,8.134c4.492,0,8.133-3.643,8.133-8.134v-28.578    c-4.945-0.285-11.133-1.257-16.266-2.698V228.795z"></path><path d="M98.924,228.795c0,4.491,3.643,8.134,8.135,8.134c4.49,0,8.133-3.643,8.133-8.134V197.52    c-5.133,1.44-11.321,2.413-16.268,2.698V228.795z"></path><path d="M324.405,157.939v68.168c0,5.729,4.647,10.375,10.378,10.375c5.727,0,10.374-4.646,10.374-10.375v-49.417h4.113v49.417    c0,5.729,4.646,10.375,10.377,10.375c5.728,0,10.375-4.646,10.375-10.375v-68.168H324.405z"></path><circle cx="347.214" cy="70.19" r="20.911"></circle><circle cx="96.109" cy="80.298" r="20.021"></circle><path d="M398.93,228.371c0,4.418,3.582,8,8,8c4.418,0,8.001-3.582,8.001-8v-33.825h3v33.825c0,4.418,3.583,8,8.001,8s8-3.582,8-8    V176.15H398.93V228.371z"></path><circle cx="29.017" cy="137.346" r="16.185"></circle><circle cx="416.431" cy="106.871" r="17.5"></circle></g></g></svg>