<svg xmlns="http://www.w3.org/2000/svg" xmlns:xlink="http://www.w3.org/1999/xlink" viewBox="-20 -20 100 100" version="1.1" x="0px" y="0px" data-icon="true" fill="#000000"><title>056 - Coal </title><desc>Created with Sketch.</desc><g stroke="none" stroke-width="1" fill="none" fill-rule="evenodd"><g fill="#000000" fill-rule="nonzero"><path d="M59,55 L1,55 C0.44771525,55 6.76353751e-17,55.4477153 0,56 C-6.76353751e-17,56.5522847 0.44771525,57 1,57 L2,57 L2,59 C2,59.5522847 2.44771525,60 3,60 C3.55228475,60 4,59.5522847 4,59 L4,57 L11,57 L11,59 C11,59.5522847 11.4477153,60 12,60 C12.5522847,60 13,59.5522847 13,59 L13,57 L20,57 L20,59 C20,59.5522847 20.4477153,60 21,60 C21.5522847,60 22,59.5522847 22,59 L22,57 L29,57 L29,59 C29,59.5522847 29.4477153,60 30,60 C30.5522847,60 31,59.5522847 31,59 L31,57 L38,57 L38,59 C38,59.5522847 38.4477153,60 39,60 C39.5522847,60 40,59.5522847 40,59 L40,57 L47,57 L47,59 C47,59.5522847 47.4477153,60 48,60 C48.5522847,60 49,59.5522847 49,59 L49,57 L56,57 L56,59 C56,59.5522847 56.4477153,60 57,60 C57.5522847,60 58,59.5522847 58,59 L58,57 L59,57 C59.5522847,57 60,56.5522847 60,56 C60,55.4477153 59.5522847,55 59,55 Z"></path><path d="M13,24 C13,24.5522847 12.5522847,25 12,25 L2.17,25 L5.81,45 L5,45 C3.89679813,45.0032948 3.0032948,45.8967981 3,47 L3,49 C3.0032948,50.1032019 3.89679813,50.9967052 5,51 L8,51 C8.00595673,49.5230271 8.55396037,48.099641 9.54,47 C10.9496604,45.4204447 13.0890292,44.7033146 15.1658869,45.1141668 C17.2427446,45.5250189 18.9479285,47.0026936 19.65,49 C19.8833562,49.6409013 20.0018379,50.3179398 20,51 L40,51 C39.9981621,50.3179398 40.1166438,49.6409013 40.35,49 C41.1919479,46.6014834 43.4580027,44.9971968 46,45 L46.1,45 C47.7687791,45.0289013 49.3495181,45.7540109 50.46,47 C51.4460396,48.099641 51.9940433,49.5230271 52,51 L55,51 C56.1032019,50.9967052 56.9967052,50.1032019 57,49 L57,47 C56.9967052,45.8967981 56.1032019,45.0032948 55,45 L54.19,45 L57.83,25 L16,25 C15.4477153,25 15,24.5522847 15,24 C15,23.4477153 15.4477153,23 16,23 L58,23 L58,19 L2,19 L2,23 L12,23 C12.5522847,23 13,23.4477153 13,24 Z M21,45 L39,45 C39.5522847,45 40,45.4477153 40,46 C40,46.5522847 39.5522847,47 39,47 L21,47 C20.4477153,47 20,46.5522847 20,46 C20,45.4477153 20.4477153,45 21,45 Z"></path><path d="M18,51 C17.999144,50.73138 17.972353,50.4634703 17.92,50.2 C17.541446,48.3357408 15.9023053,46.9959899 14,46.9959899 C12.0976947,46.9959899 10.458554,48.3357408 10.08,50.2 C10.027647,50.4634703 10.000856,50.73138 10,51 C10,53.209139 11.790861,55 14,55 C16.209139,55 18,53.209139 18,51 Z"></path><path d="M50,51 C49.999144,50.73138 49.972353,50.4634703 49.92,50.2 C49.541446,48.3357408 47.9023053,46.9959899 46,46.9959899 C44.0976947,46.9959899 42.458554,48.3357408 42.08,50.2 C42.027647,50.4634703 42.000856,50.73138 42,51 C42,53.209139 43.790861,55 46,55 C48.209139,55 50,53.209139 50,51 Z"></path><path d="M2.79,17 L57.18,17 L57.58,14.51 C57.7349469,13.5983222 57.4786855,12.6647984 56.88,11.96 C56.2962689,11.2740699 55.4406894,10.8791871 54.54,10.88 C54.2192996,10.8815967 53.916155,10.7337213 53.72,10.48 C53.4945484,10.2071209 53.4061539,9.8461765 53.48,9.5 C53.6699076,8.57645465 53.4308657,7.61660946 52.83,6.89 C52.2469252,6.18143688 51.377626,5.77062882 50.46,5.77 L49.18,5.77 C48.7977514,5.77143815 48.4450989,5.56444648 48.26,5.23 L46.77,2.71 C46.0119466,1.38692414 44.3905577,0.83077489 42.98,1.41 L40.58,2.39 C40.2734995,2.5183171 39.9241142,2.49229905 39.64,2.32 L36.59,0.45 C35.6149057,-0.15 34.3850943,-0.15 33.41,0.45 L30.34,2.33 C30.0628736,2.49803588 29.7244374,2.53114377 29.42,2.42 L23.9,0.3 C22.5526238,-0.212521417 21.0303902,0.287938941 20.25,1.5 L17.88,5.13 C17.6579473,5.47609981 17.2586195,5.6660713 16.85,5.62 L11.72,4.96 C10.3181821,4.79018501 8.97984224,5.59318896 8.47,6.91 L7.4,9.65 C7.28810647,9.93015183 7.06829551,10.1535663 6.79,10.27 L4.23,11.31 C2.85072765,11.8858222 2.06850685,13.3540548 2.36,14.82 L2.79,17 Z"></path></g></g></svg>