<svg xmlns="http://www.w3.org/2000/svg" xmlns:xlink="http://www.w3.org/1999/xlink" version="1.1" x="0px" y="0px" viewBox="-20 -20 100 100" style="enable-background:new 0 0 60 60;" xml:space="preserve" data-icon="true" fill="#000000"><g><g><g><path d="M48,35.0000153c-3.9199829,0-7,4.3900146-7,10s3.0800171,10,7,10s7-4.3900146,7-10S51.9199829,35.0000153,48,35.0000153z      M48,51.0000153c-1.1900024,0-3-2.3900146-3-6s1.8099976-6,3-6s3,2.3900146,3,6S49.1900024,51.0000153,48,51.0000153z"></path></g></g><path d="M29.8900146,36.9900055C29.9199829,37.0000153,29.960022,37.0000153,30,37.0000153   c0.0700073,0,0.1300049,0,0.1900024-0.0100098H29.8900146z"></path><path d="M42.9500122,35.0000153H14.9099731C9.4500122,35.0000153,5,39.4500275,5,44.9099884v0.1799927   c0,5.460022,4.4500122,9.9100342,9.9099731,9.9100342h28.0400391C40.5499878,52.8600006,39,49.219986,39,45.0000153   C39,40.7799835,40.5499878,37.1400299,42.9500122,35.0000153z M30.1900024,36.9900055   C30.1300049,37.0000153,30.0700073,37.0000153,30,37.0000153c-0.039978,0-0.0800171,0-0.1099854-0.0100098H30.1900024z    M15,50.5000153h-2c-0.5499878,0-1-0.4500122-1-1s0.4500122-1,1-1h2c0.5499878,0,1,0.4500122,1,1   S15.5499878,50.5000153,15,50.5000153z M15,41.5000153h-2c-0.5499878,0-1-0.4500122-1-1s0.4500122-1,1-1h2   c0.5499878,0,1,0.4500122,1,1S15.5499878,41.5000153,15,41.5000153z M20,46.0000153h-2c-0.5499878,0-1-0.4500122-1-1   s0.4500122-1,1-1h2c0.5499878,0,1,0.4500122,1,1S20.5499878,46.0000153,20,46.0000153z M25,50.5000153h-2   c-0.5499878,0-1-0.4500122-1-1s0.4500122-1,1-1h2c0.5499878,0,1,0.4500122,1,1S25.5499878,50.5000153,25,50.5000153z    M25,41.5000153h-2c-0.5499878,0-1-0.4500122-1-1s0.4500122-1,1-1h2c0.5499878,0,1,0.4500122,1,1   S25.5499878,41.5000153,25,41.5000153z M30,46.0000153h-2c-0.5499878,0-1-0.4500122-1-1s0.4500122-1,1-1h2   c0.5499878,0,1,0.4500122,1,1S30.5499878,46.0000153,30,46.0000153z M35,50.5000153h-2c-0.5499878,0-1-0.4500122-1-1   s0.4500122-1,1-1h2c0.5499878,0,1,0.4500122,1,1S35.5499878,50.5000153,35,50.5000153z M35,41.5000153h-2   c-0.5499878,0-1-0.4500122-1-1s0.4500122-1,1-1h2c0.5499878,0,1,0.4500122,1,1S35.5499878,41.5000153,35,41.5000153z"></path><g><path d="M42,25.0000153c0,3.3399658-0.8300171,6.0299683-2.4099731,8h-4.4800415    c0.1500244-0.6099854,0.2200317-1.2700195,0.2200317-2c0-3.9500122-4.4299927-8.5100098-4.6199951-8.7000122    c-0.3699951-0.3800049-1.0500488-0.3800049-1.4200439,0c-0.1900024,0.1900024-4.6199951,4.75-4.6199951,8.7000122    c0,0.7299805,0.0700073,1.3999634,0.2200317,2h-5.4800415C17.8200073,31.0199738,17,28.3399811,17,25.0000153    c0-2.1799927,0.7299805-4.6799927,2.1699829-7.4299927c0.1600342-0.3099976,0.4700317-0.5100098,0.8200073-0.5400391    c0.3400269-0.0199585,0.6799927,0.1400146,0.8800049,0.4200439c0.4500122,0.6199951,0.8699951,1.289978,1.2600098,2    c0.3499756-5.3700562,2.6799927-10.3600464,6.5800171-14.0800171l0.0999756-0.1000366    c0.3900146-0.3599854,0.9899902-0.3599854,1.3699951,0C30.6599731,5.719986,42,16.3800201,42,25.0000153z"></path></g><path d="M29.8900146,36.9900055C29.9199829,37.0000153,29.960022,37.0000153,30,37.0000153   c0.0700073,0,0.1300049,0,0.1900024-0.0100098H29.8900146z"></path></g></svg>