<svg xmlns="http://www.w3.org/2000/svg" xmlns:xlink="http://www.w3.org/1999/xlink" version="1.1" x="0px" y="0px" viewBox="-20 -20 140 140" style="enable-background:new 0 0 100 100;" xml:space="preserve" data-icon="true" fill="#000000"><switch><g><g><path d="M19.8,33.4v41.3h60.4V33.4H19.8z M50.9,67.5h-1.8c-4.6,0-8.5-3.3-9.2-7.9c-0.3-1.9-0.2-4,0.4-6c0.1-0.2,0.4-0.2,0.5,0     c0.3,0.9,1.1,2.5,2.3,3.3c1.1,0.7,1.3,0,0.7-2c-0.5-1.9-1.5-6.2-0.3-9.1c0.1-0.2,0.3-0.2,0.4,0c0.9,1.9,2,3.2,3,4     c0,0-0.4-5.8,3.4-9.1c0.2-0.1,0.4,0,0.4,0.2c-0.3,1.7,0.1,3.9,0.8,5.5c1.4,3,1,4.7,1,4.7s2.1-1.7,1.6-5c0-0.2,0.2-0.4,0.4-0.2     c1.6,1.6,3.2,4.3,1.8,8.3c-1.2,3.6-0.6,4.4,0.3,3.7c0.7-0.6,1.7-1.7,1.9-3.9c0-0.2,0.3-0.3,0.4-0.1c0.2,0.3,0.3,0.6,0.5,0.9     C62.2,60.8,57.4,67.5,50.9,67.5z"></path><path d="M32.2,16.6c-6.7,0-12.1,5.3-12.4,11.9h60.3c-0.3-6.6-5.7-11.9-12.4-11.9h-3V7.4h2.8C68.9,7.4,70,6.3,70,5     s-1.1-2.5-2.5-2.5H32.4C31.1,2.5,30,3.6,30,5s1.1,2.5,2.5,2.5h2.8v9.2H32.2z M40.1,7.4h19.8v9.2H52v-2.3h0.8c1.1,0,2-0.9,2-2     s-0.9-2-2-2h-5.6c-1.1,0-2,0.9-2,2s0.9,2,2,2H48v2.3h-7.8V7.4z"></path><path d="M19.8,79.6c0.2,5.5,4,10,9.1,11.4v0.9c0,3.1,2.5,5.6,5.6,5.6h30.9c3.1,0,5.6-2.5,5.6-5.6v-0.9c5.1-1.4,8.9-5.9,9.1-11.4     H19.8z"></path></g></g></switch></svg>