<svg xmlns="http://www.w3.org/2000/svg" xmlns:xlink="http://www.w3.org/1999/xlink" version="1.1" x="0px" y="0px" viewBox="-20 -20 106 140" xml:space="preserve" data-icon="true" fill="#000000"><g><path d="M59.889,74.303H53.11c-1.387,0-2.514-1.125-2.514-2.513s1.127-2.513,2.514-2.513h6.779c1.143,0,1.779-0.473,1.871-0.637   l-0.021-9.454H5.025v9.6c0.063,0.019,0.7,0.491,1.842,0.491h6.782c1.389,0,2.514,1.125,2.514,2.513s-1.125,2.513-2.514,2.513H6.868   C3.017,74.303,0,71.88,0,68.786V56.674c0-1.388,1.125-2.514,2.513-2.514h61.732c1.387,0,2.512,1.126,2.512,2.514v12.112   C66.756,71.88,63.741,74.303,59.889,74.303z M40.401,74.303H26.356c-1.389,0-2.514-1.125-2.514-2.513s1.125-2.513,2.514-2.513   h14.044c1.389,0,2.514,1.125,2.514,2.513S41.79,74.303,40.401,74.303z"></path><path d="M64.245,59.187H2.513C1.125,59.187,0,58.061,0,56.674V21.805c0-3.727,3.082-6.76,6.871-6.76h13.708l-0.006-12.53   c0-0.667,0.266-1.307,0.736-1.778C21.78,0.266,22.421,0,23.087,0h20.58c1.389,0,2.514,1.126,2.514,2.513v12.532h13.709   c3.785,0,6.867,3.033,6.867,6.76v34.869C66.756,58.061,65.631,59.187,64.245,59.187z M5.025,54.16h56.706V21.805   c0-0.956-0.828-1.734-1.842-1.734H43.667c-1.387,0-2.512-1.126-2.512-2.513V5.026H25.601l0.006,12.529   c0,0.668-0.266,1.308-0.736,1.778c-0.473,0.472-1.111,0.736-1.777,0.736H6.871c-1.018,0-1.846,0.778-1.846,1.734V54.16z"></path><path d="M20.005,100c-3.486,0-6.217-3.342-6.217-7.607V62.864c0-1.388,1.125-2.513,2.512-2.513h7.408   c1.389,0,2.514,1.125,2.514,2.513v29.528C26.222,96.658,23.491,100,20.005,100z M18.813,65.377v27.016   c0,1.607,0.828,2.582,1.191,2.582s1.189-0.975,1.189-2.582V65.377H18.813z"></path><path d="M46.756,100c-3.484,0-6.217-3.342-6.217-7.607V62.864c0-1.388,1.125-2.513,2.512-2.513h7.408   c1.387,0,2.514,1.125,2.514,2.513v29.528C52.973,96.658,50.241,100,46.756,100z M45.565,65.377v27.016   c0,1.607,0.828,2.582,1.191,2.582s1.189-0.975,1.189-2.582V65.377H45.565z"></path><path d="M26.798,52.868c-0.604,0-1.209-0.216-1.691-0.654c-1.027-0.935-1.102-2.522-0.168-3.55l9.316-10.241h-7.436   c-1.037,0-1.965-0.637-2.342-1.604c-0.375-0.965-0.119-2.063,0.646-2.764l13.14-12.03c1.031-0.936,2.615-0.862,3.555,0.157   c0.936,1.023,0.863,2.612-0.158,3.55l-8.375,7.664h6.652c0.994,0,1.893,0.588,2.297,1.498c0.402,0.909,0.23,1.971-0.439,2.707   l-13.14,14.445C28.159,52.592,27.479,52.868,26.798,52.868z"></path></g></svg>