<svg xmlns="http://www.w3.org/2000/svg" xmlns:xlink="http://www.w3.org/1999/xlink" version="1.1" x="0px" y="0px" viewBox="-20 -20 140 140" xml:space="preserve" data-icon="true" fill="#000000"><g><path d="M65.765,8.014c-0.546-0.234-1.135-0.39-1.757-0.451c-3.294-0.327-6.229,2.096-6.559,5.414   c-0.329,3.318,2.072,6.274,5.366,6.601c2.09,0.208,4.034-0.697,5.261-2.233c1.665,1.399,3.778,5.967,7.116-0.199   C70.927,20.563,71.076,9.862,65.765,8.014z"></path><ellipse cx="37.404" cy="11.888" rx="6.357" ry="6.406"></ellipse><polygon points="72.722,36.552 75.088,57.462 79.185,53.871 74.093,22.349 53.281,22.324 51.159,37.638 48.841,20.548    24.923,20.523 21.602,56.922 25.566,60.039 27.104,36.836 28.438,36.87 25.46,94.894 31.264,94.894 37.071,58.128 43.056,94.866    48.633,94.866 45.506,36.805 46.88,36.805 48.925,55.046 53.351,52.567 54.923,36.583 56.285,36.619 53.558,72.928 57.307,72.932    59.716,94.783 63.58,94.89 63.651,72.932 65.295,72.932 65.245,94.783 68.789,94.783 71.507,72.932 75.47,72.911 71.32,36.552"></polygon></g></svg>