<svg xmlns="http://www.w3.org/2000/svg" version="1.1" viewBox="-20 -20 140 140" x="0px" y="0px" data-icon="true" fill="#000000"><metadata> Produced by OmniGraffle 6.0.5 </metadata><g stroke="none" stroke-opacity="1" stroke-dasharray="none" fill="none" fill-opacity="1"><title>Canvas 3</title><g><title>Layer 1</title><path d="M 5 91 L 5 95 L 95 95 L 95 91 Z M 14 61 L 26 61 L 26 77 L 14 77 Z M 14 79.5 L 26 79.5 L 26 83 L 14 83 Z M 53.999992 60 L 86 60 L 86 76 L 53.999992 76 Z M 53.999992 78.5 L 86 78.5 L 86 82 L 53.999992 82 Z M 47 34 L 59 34 L 59 44 L 47 44 Z M 47 46.5 L 59 46.5 L 59 50 L 47 50 Z M 62 34 L 74 34 L 74 44 L 62 44 Z M 62 46.5 L 74 46.5 L 74 50 L 62 50 Z M 22 24 L 34 24 L 34 34 L 22 34 Z M 22 36.5 L 34 36.5 L 34 40 L 22 40 Z M 31.999996 89 L 31.999996 65.008025 L 31.999996 65 L 31.999992 65 C 31.999992 62.952624 32.781044 60.905248 34.343148 59.343152 C 37.46734 56.218944 42.532652 56.218944 45.656844 59.343152 C 47.218948 60.905248 48 62.952624 48 65 C 48 65.002675 48 65.00535 47.999996 65.008025 L 47.999996 89 L 91 89 L 91 42 L 100.14286 42 L 82 27.888889 L 82 9 L 70 9 L 70 18.555556 L 50 3 L 35.214286 14.5 L 28.142857 9 L 5 27 L 14.285714 27 L 14.285714 30.777778 L -.14285714 42 L 8 42 L 8 89 Z" fill="black"></path></g></g></svg>