<svg xmlns="http://www.w3.org/2000/svg" xmlns:xlink="http://www.w3.org/1999/xlink" version="1.1" x="0px" y="0px" viewBox="-20 -20 104 104" style="enable-background:new 0 0 64 64;" xml:space="preserve" data-icon="true" fill="#000000"><path d="M27.889,43.06c1.338-0.501,2.303-1.637,2.583-3.037l1.443-7.219c0.085-0.425,0.434-0.746,0.863-0.797  c0.426-0.055,0.844,0.181,1.025,0.574l4.676,10.129c1.198,2.598,1.055,5.635-0.386,8.125c-0.066,0.115-0.145,0.217-0.215,0.328  c0.391-0.34,0.754-0.716,1.069-1.136c2.031-2.709,2.79-6.161,2.08-9.471c-1.08-5.044-4.195-9.524-8.548-12.294  c-0.002-0.002-0.005-0.003-0.007-0.005l-2.186-1.417V33c0,0.98-0.475,1.836-1.303,2.348c-0.913,0.564-2.102,0.604-3.105,0.102  l-2.426-1.213l0.025,0.051c1.162,2.323,1.029,5.136-0.349,7.339c-1.615,2.585-1.473,5.961,0.356,8.4  c0.23,0.307,0.49,0.585,0.762,0.85c-0.219-0.636-0.345-1.318-0.343-2.038C23.913,46.232,25.477,43.964,27.889,43.06z"></path><path d="M36.362,49.834c1.115-1.928,1.228-4.278,0.301-6.286l-3.389-7.342l-0.842,4.209c-0.416,2.083-1.853,3.771-3.842,4.518  c-1.626,0.609-2.681,2.146-2.686,3.912c-0.005,1.325,0.648,2.993,2.494,3.697c0.996,0.38,2.085,0.522,3.136,0.43  C33.556,52.789,35.315,51.646,36.362,49.834z"></path><path d="M52,24H12c-1.654,0-3,1.346-3,3v25c0,1.654,1.346,3,3,3h17.434c-2.954,0-5.775-1.411-7.547-3.774  c-2.321-3.095-2.503-7.379-0.452-10.66c1.01-1.616,1.107-3.679,0.255-5.384l-1.367-2.734c-0.192-0.385-0.117-0.85,0.188-1.154  c0.305-0.306,0.769-0.381,1.154-0.188l5.109,2.555c0.383,0.192,0.837,0.187,1.159-0.014c0.235-0.145,0.354-0.362,0.354-0.646v-8  c0-0.366,0.2-0.704,0.522-0.879c0.321-0.175,0.713-0.16,1.021,0.04l3.727,2.416c4.799,3.055,8.234,7.997,9.425,13.56  c0.832,3.875-0.056,7.917-2.436,11.089C38.775,53.589,35.954,55,33,55h19c1.654,0,3-1.346,3-3V27C55,25.346,53.654,24,52,24z"></path><path d="M20,16V9c0-0.552-0.448-1-1-1H7C6.448,8,6,8.448,6,9v7h2v-6h2v6h2v-6h2v6h2v-6h2v6H20z"></path><path d="M54,9H36c-0.552,0-1,0.448-1,1v2c0,0.552,0.448,1,1,1h18c0.552,0,1-0.448,1-1v-2C55,9.448,54.552,9,54,9z"></path><path d="M55,4H33.907c-1.521,0-2.936,0.677-3.889,1.858l-7.166,11.665C22.67,17.819,22.348,18,22,18H5c-0.552,0-1,0.448-1,1v36  c0,2.757,2.243,5,5,5h46c2.757,0,5-2.243,5-5V9C60,6.243,57.757,4,55,4z M57,52c0,2.757-2.243,5-5,5H12c-2.757,0-5-2.243-5-5V27  c0-2.757,2.243-5,5-5h40c2.757,0,5,2.243,5,5V52z M57,12c0,1.654-1.346,3-3,3H36c-1.654,0-3-1.346-3-3v-2c0-1.654,1.346-3,3-3h18  c1.654,0,3,1.346,3,3V12z"></path></svg>