<svg xmlns="http://www.w3.org/2000/svg" viewBox="-20 -20 140 140" fill="#000000" x="0px" y="0px" data-icon="true"><path d="M50 21H84V19H50V21Z" fill="black"></path><path d="M71 26H50V24H71V26Z" fill="black"></path><path fill-rule="evenodd" clip-rule="evenodd" d="M50 29H84V40H50V29ZM52 31V38H82V31H52Z" fill="black"></path><path d="M76 26H84V24H76V26Z" fill="black"></path><path d="M50 55H84V53H50V55Z" fill="black"></path><path d="M50 60H71V58H50V60Z" fill="black"></path><path d="M76 60H84V58H76V60Z" fill="black"></path><path fill-rule="evenodd" clip-rule="evenodd" d="M50 63V74H84V63H50ZM52 72V65H82V72H52Z" fill="black"></path><path fill-rule="evenodd" clip-rule="evenodd" d="M29.8083 36.9194C29.3983 36.2094 28.8244 34.5432 28.5181 32.9192C28.1513 32.8804 27.7931 32.7916 27.4543 32.6556C26.315 33.9213 24.921 35.0998 24.1836 35.5255C22.6691 36.3999 20.7587 35.9265 19.9166 34.468C19.0746 33.0096 19.6198 31.1184 21.1343 30.244C21.8469 29.8325 23.475 29.2416 25.087 28.883C25.117 28.4575 25.2172 28.0373 25.3827 27.64C24.1985 26.5925 23.1302 25.3526 22.7395 24.6759C21.8974 23.2174 22.4426 21.3263 23.9571 20.4518C25.4717 19.5774 27.3821 20.0509 28.2241 21.5093C28.6005 22.1612 29.115 23.6188 29.4338 25.1099C29.9311 25.1388 30.4164 25.2591 30.8629 25.464C31.9415 24.3193 33.1718 23.2941 33.8488 22.9033C35.3633 22.0288 37.2737 22.5023 38.1158 23.9608C38.9578 25.4192 38.4126 27.3104 36.8981 28.1848C36.1953 28.5905 34.6023 29.1709 33.0123 29.5308C32.9419 29.9517 32.8027 30.3622 32.5998 30.7448C33.8038 31.8013 34.8968 33.0667 35.2929 33.7529C36.135 35.2113 35.5898 37.1025 34.0752 37.9769C32.5607 38.8513 30.6503 38.3779 29.8083 36.9194ZM27.0771 30.1739C27.6895 31.2346 29.0789 31.5789 30.1804 30.9429C31.2819 30.307 31.6784 28.9316 31.066 27.8709C30.4536 26.8102 29.0642 26.4659 27.9627 27.1018C26.8612 27.7378 26.4647 29.1132 27.0771 30.1739Z" fill="black"></path><path fill-rule="evenodd" clip-rule="evenodd" d="M30.4372 66.6719C31.5144 67.9252 32.8446 69.0812 33.5547 69.4911C35.0131 70.3332 36.9043 69.788 37.7787 68.2734C38.6531 66.7589 38.1797 64.8485 36.7212 64.0065C36.035 63.6103 34.4559 63.0609 32.8848 62.748C32.8693 62.3152 32.7846 61.8901 32.6351 61.4903C33.8321 60.3837 34.9216 59.0845 35.3273 58.3818C36.2017 56.8673 35.7283 54.9569 34.2698 54.1148C32.8113 53.2728 30.9202 53.818 30.0458 55.3325C29.6549 56.0094 29.1021 57.5125 28.7403 59.0431C28.2511 59.0889 27.7707 59.2274 27.3256 59.4509C26.304 58.3191 25.1295 57.314 24.4777 56.9376C23.0192 56.0956 21.1281 56.6408 20.2536 58.1553C19.3792 59.6699 19.8527 61.5803 21.3111 62.4223C21.9878 62.813 23.533 63.3527 25.0823 63.6676C25.1376 64.0945 25.2609 64.5085 25.4477 64.892C24.2309 66.0085 23.1165 67.3344 22.7051 68.047C21.8306 69.5615 22.3041 71.4719 23.7625 72.3139C25.221 73.156 27.1122 72.6108 27.9866 71.0963C28.4123 70.3589 29.0303 68.6413 29.3841 66.9755C29.7455 66.9239 30.1001 66.8217 30.4372 66.6719ZM30.8887 64.1293C30.2527 65.2308 28.8773 65.6273 27.8166 65.0149C26.7559 64.4025 26.4116 63.0131 27.0475 61.9116C27.6835 60.8101 29.0589 60.4136 30.1196 61.026C31.1803 61.6384 31.5246 63.0278 30.8887 64.1293Z" fill="black"></path><path fill-rule="evenodd" clip-rule="evenodd" d="M90 10H10V85H19V90H38V85H62V90H81V85H90V10ZM88 12V45H47V12H88ZM88 47H47V79H88V47ZM12 83V81H88V83H12ZM21 88V85H36V88H21ZM79 85V88H64V85H79ZM29 41C35.6274 41 41 35.6274 41 29C41 22.3726 35.6274 17 29 17C22.3726 17 17 22.3726 17 29C17 35.6274 22.3726 41 29 41ZM41 63C41 69.6274 35.6274 75 29 75C22.3726 75 17 69.6274 17 63C17 56.3726 22.3726 51 29 51C35.6274 51 41 56.3726 41 63Z" fill="black"></path></svg>