<svg xmlns="http://www.w3.org/2000/svg" xmlns:xlink="http://www.w3.org/1999/xlink" version="1.1" x="0px" y="0px" viewBox="-20 -20 140 140" xml:space="preserve" data-icon="true" fill="#000000"><g><g><path fill="#000000" d="M46.4,50.3c0.3,0.3,0.5,0.7,0.8,1c3.4,0,6.7,0,10.1,0l1.3,0c3.1,0,5.5,2,5.9,4.8c1.7-0.4,3.1-1,4.1-1.6    l-1.3-6.2c-1.2,0.6-3.8,1.4-6.3,1.4c-2.8,0-5.4-0.8-7.2-2.8C53,46,52.4,44.7,52,43h14v-4H51.2c0-0.3,0-0.6,0-0.9    c0-0.6,0-1.2,0.1-1.7h14.7v-4H52.1c0.4-1.4,1-2.7,1.8-3.6c1.7-2.1,4.2-3,6.8-3c2.4,0,4.7,0.7,6.2,1.3l1.6-6.3    c-2-0.9-5-1.7-8.3-1.7c-5.2,0-9.7,2.1-12.9,5.7c-1.8,2.1-3.1,4.6-3.8,7.6h-3.7v4h3.1c0,0.6-0.1,1.1-0.1,1.7c0,0.3,0,0.7,0,0.9    h-3.1v4h3.6C43.8,46,44.9,48.4,46.4,50.3z"></path></g><path fill="#000000" d="M86.4,55.1c-1.5,1.6-3,3.1-4.6,4.6c-4,4-8,8-12,12c-1.4,1.4-2.9,2-4.8,1.9c-5.5,0-11,0-16.6,0   c-5.7,0-11.4,0-17.1,0c-0.7,0-1.5,0.4-2,0.8c-2.1,2.1-4.2,4.2-6.3,6.3c-4.2-3.7-7.8-8-10.5-13c4.4-4.4,8.8-8.8,13.2-13.1   c0.8-0.8,2.2-1.4,3.3-1.4c9.8-0.1,19.7-0.1,29.5,0c2.4,0,4,1.7,4,3.8c0,2.2-1.7,3.8-4,3.8c-3.8,0-7.6,0-11.5,0   c-0.8,0-1.4,0.1-1.4,1.1c0,1.1,0.7,1.1,1.5,1.1c6.4,0,12.8,0,19.2,0c0.6,0,1.4-0.4,1.9-0.8c4.1-4,8.2-8.1,12.2-12.2   c1.1-1.1,2.2-1.8,3.8-1.5c1.5,0.3,2.5,1.1,3,2.6C87.8,52.7,87.4,54,86.4,55.1z"></path></g></svg>