<svg xmlns="http://www.w3.org/2000/svg" xmlns:xlink="http://www.w3.org/1999/xlink" version="1.1" x="0px" y="0px" viewBox="-20 -20 137 140" xml:space="preserve" data-icon="true" fill="#000000"><path d="M0,0v100h45.455V0H0z M13.636,81.818H4.545v-9.091h9.091V81.818z M13.636,68.182H4.545v-9.091h9.091V68.182z M13.636,54.545  H4.545v-9.091h9.091V54.545z M13.636,40.909H4.545v-9.091h9.091V40.909z M13.636,27.273H4.545v-9.091h9.091V27.273z M13.636,13.636  H4.545V4.545h9.091V13.636z M27.273,81.818h-9.091v-9.091h9.091V81.818z M27.273,68.182h-9.091v-9.091h9.091V68.182z M27.273,54.545  h-9.091v-9.091h9.091V54.545z M27.273,40.909h-9.091v-9.091h9.091V40.909z M27.273,27.273h-9.091v-9.091h9.091V27.273z   M27.273,13.636h-9.091V4.545h9.091V13.636z M40.909,81.818h-9.091v-9.091h9.091V81.818z M40.909,68.182h-9.091v-9.091h9.091V68.182  z M40.909,54.545h-9.091v-9.091h9.091V54.545z M40.909,40.909h-9.091v-9.091h9.091V40.909z M40.909,27.273h-9.091v-9.091h9.091  V27.273z M40.909,13.636h-9.091V4.545h9.091V13.636z"></path><path d="M51.818,27.273V100h45.455V27.273H51.818z M65.455,81.818h-9.091v-9.091h9.091V81.818z M65.455,68.182h-9.091v-9.091h9.091  V68.182z M65.455,54.545h-9.091v-9.091h9.091V54.545z M65.455,40.909h-9.091v-9.091h9.091V40.909z M79.091,81.818H70v-9.091h9.091  V81.818z M79.091,68.182H70v-9.091h9.091V68.182z M79.091,54.545H70v-9.091h9.091V54.545z M79.091,40.909H70v-9.091h9.091V40.909z   M92.727,81.818h-9.091v-9.091h9.091V81.818z M92.727,68.182h-9.091v-9.091h9.091V68.182z M92.727,54.545h-9.091v-9.091h9.091  V54.545z M92.727,40.909h-9.091v-9.091h9.091V40.909z"></path></svg>